<svg xmlns="http://www.w3.org/2000/svg" width="30" height="27" viewBox="0 0 30 27" fill="none">
                            <path fill-rule="evenodd" clip-rule="evenodd" d="M6.67649 0H0V2.7H4.48438L8.3423 19.8148H8.36013V20.25H26.4737V19.915L29.5297 6.87278L30 5.4H7.87971L7.08501 1.87451L6.67649 0ZM26.4554 8.1H8.48833L10.6185 17.55H24.2413L26.4554 8.1Z" fill="#C1A55C"/>
                            <path d="M12.5402 27C14.0793 27 15.3269 25.7912 15.3269 24.3C15.3269 22.8088 14.0793 21.6 12.5402 21.6C11.0011 21.6 9.75349 22.8088 9.75349 24.3C9.75349 25.7912 11.0011 27 12.5402 27Z" fill="#C1A55C"/>
                            <path d="M25.0804 24.3C25.0804 25.7912 23.8327 27 22.2937 27C20.7546 27 19.507 25.7912 19.507 24.3C19.507 22.8088 20.7546 21.6 22.2937 21.6C23.8327 21.6 25.0804 22.8088 25.0804 24.3Z" fill="#C1A55C"/>
                            </svg>