<svg xmlns="http://www.w3.org/2000/svg" width="90" height="78" viewBox="0 0 90 78" fill="none">
                        <path d="M11.1403 0H15.8809L30.0631 29.9841H25.2435L23.3078 25.678H14.3402C12.997 25.678 11.7987 25.7702 10.7453 25.9546C9.71815 26.1389 8.83588 26.376 8.09846 26.6657C7.36104 26.9554 6.76847 27.2714 6.32075 27.6138C5.87303 27.9561 5.57016 28.2854 5.41214 28.6014L4.66155 29.9841H0L12.76 3.63443L11.1403 0ZM21.372 21.3325L14.9328 8.88855L8.4145 22.9917C8.94123 22.544 9.81033 22.1621 11.0218 21.8461C12.2333 21.5037 13.8661 21.3325 15.9204 21.3325H21.372Z" fill="#212121"/>
                        <path d="M46.9399 29.9841H41.8438L29.6763 0.513561H34.3379L44.4116 25.1645L54.5643 0.513561H59.3049L46.9399 29.9841Z" fill="#212121"/>
                        <path d="M68.3915 29.9841H64.0855V0.513561H68.3915V22.5177L83.3638 0.513561H88.5389L78.8603 14.3797L84.1539 22.3201C85.0757 23.6896 85.9053 24.5982 86.6427 25.046C87.4065 25.4937 88.1044 25.6912 88.7365 25.6385L89.9611 25.599V29.9841H88.4204C87.7357 29.9841 87.0773 29.9445 86.4452 29.8655C85.8394 29.7865 85.2337 29.6022 84.628 29.3125C84.0222 28.9964 83.4033 28.5355 82.7712 27.9298C82.1392 27.2977 81.4808 26.4286 80.796 25.3225L76.332 18.1722L68.3915 29.9841Z" fill="#212121"/>
                        <path d="M4.30601 72.4428H29.6868V76.7488H0V47.2783L29.6868 47.1993V51.5448L4.30601 51.6238V60.5519C5.20145 60.0251 6.11006 59.7091 7.03183 59.6038C7.95361 59.4721 8.90172 59.4062 9.87617 59.4062L24.8097 59.3667V63.7517L9.87617 63.7913C8.92806 63.7913 7.97994 63.8703 7.03183 64.0283C6.11006 64.16 5.20145 64.4628 4.30601 64.9369V72.4428Z" fill="#212121"/>
                        <path d="M60.5037 67.96C60.5037 69.4349 60.1613 70.778 59.4766 71.9895C58.8182 73.1747 57.8964 74.1886 56.7113 75.0314C55.5525 75.8478 54.1698 76.4799 52.5633 76.9276C50.9567 77.3753 49.2185 77.5992 47.3486 77.5992C46.2162 77.5992 40.6772 77.2755 39.5447 76.9858C38.4386 76.7224 37.3588 76.3406 36.3053 75.8402C35.2519 75.3134 34.2511 74.6814 33.303 73.9439C32.3812 73.1802 31.5516 72.3243 30.8142 71.3761L33.8956 68.4923C34.2906 68.9664 34.7647 69.4799 35.3177 70.033C35.8708 70.5597 36.516 71.0601 37.2535 71.5342C38.0172 71.9819 38.86 72.3638 39.7818 72.6798C40.7299 72.9695 46.1898 73.2932 47.3486 73.2932C48.4284 73.2932 49.4951 73.1878 50.5485 72.9771C51.602 72.7664 52.5369 72.4504 53.3534 72.029C54.1698 71.5813 54.8282 71.0282 55.3286 70.3698C55.829 69.6851 56.0792 68.8818 56.0792 67.96C56.0792 66.8276 55.8158 65.9585 55.2891 65.3527C54.7887 64.747 54.1303 64.3124 53.3139 64.0491C52.4974 63.7594 51.5625 63.5882 50.509 63.5355C49.4556 63.4828 48.4021 63.4565 47.3486 63.4565C42.5076 63.4565 36.6872 62.6456 34.8437 61.3815C33.0001 60.1173 32.0784 58.2079 32.0784 55.6533C32.0784 54.4681 32.3417 53.3225 32.8684 52.2164C33.4215 51.0839 34.1721 50.0963 35.1202 49.2535C36.0947 48.3844 37.2403 47.6997 38.5571 47.1993C39.9003 46.6726 45.7685 46.588 47.3486 46.588C49.5872 46.588 51.681 46.9304 53.6299 47.6151C55.5788 48.2999 57.4355 49.5114 59.2001 51.2496L56.5137 54.4099C55.7236 53.7779 54.973 53.238 54.262 52.7902C53.5772 52.3425 52.8793 51.987 52.1682 51.7236C51.4571 51.4339 50.7065 51.2364 49.9165 51.131C49.1527 50.9994 48.2968 50.9335 47.3486 50.9335C46.5059 50.9335 41.3093 50.8864 40.5719 51.1498C39.8344 51.4131 39.1892 51.7687 38.6361 52.2164C38.0831 52.6641 37.6485 53.1908 37.3325 53.7966C37.0164 54.376 36.8584 54.9817 36.8584 55.6138C36.8584 56.0615 36.9506 56.4961 37.1349 56.9174C37.3193 57.3125 37.6485 57.668 38.1226 57.9841C38.5966 58.3001 39.2287 58.5503 40.0188 58.7346C40.8352 58.919 46.282 59.19 47.5462 59.19C50.1271 59.19 52.2472 59.3875 53.9064 59.7826C55.5919 60.1776 56.9219 60.757 57.8964 61.5208C58.8708 62.2582 59.5424 63.18 59.9111 64.2861C60.3062 65.3659 60.5037 66.5905 60.5037 67.96Z" fill="#212121"/>
                        <path d="M68.377 76.7488H64.071V47.2783H68.377V69.2824L83.3493 47.2783H88.5244L78.8457 61.1444L84.1394 69.0849C85.0611 70.4544 85.8907 71.363 86.6282 71.8107C87.3919 72.2584 88.0898 72.4559 88.7219 72.4033L89.9465 72.3638V76.7488H88.4059C87.7211 76.7488 87.0627 76.7093 86.4306 76.6303C85.8249 76.5513 85.2192 76.3669 84.6134 76.0772C84.0077 75.7612 83.3888 75.3003 82.7567 74.6945C82.1246 74.0625 81.4662 73.1934 80.7815 72.0872L76.3174 64.9369L68.377 76.7488Z" fill="#212121"/>
                        <rect y="36.8267" width="90" height="3.00626" fill="#212121"/>
                    </svg>