<svg xmlns="http://www.w3.org/2000/svg" width="25" height="25" viewBox="0 0 25 25" fill="none">
                                <path d="M0 8.1V1.35C0 0.604468 0.604427 0 1.35 0H8.1C8.84557 0 9.45 0.604468 9.45 1.35V6.75C9.45 7.49553 8.84557 8.1 8.1 8.1H5.4C5.4 14.0646 10.2353 18.9 16.2 18.9V16.2C16.2 15.4545 16.8044 14.85 17.55 14.85H22.95C23.6956 14.85 24.3 15.4545 24.3 16.2V22.95C24.3 23.6955 23.6956 24.3 22.95 24.3H16.2C7.253 24.3 0 17.047 0 8.1Z" fill="#C1A55C"/>
                                </svg>